# xmcd
#
# Track frame offsets:
#	150
#	13783
#	28668
#	43131
#	57767
#	74226
#	86562
#	104506
#	117906
#	132123
#	150168
#	164150
#	182735
#
# Disc length: 2641 seconds
#
# Revision: 1
# Processed by: cddbd v1.5.2PL0 Copyright (c) Steve Scherf et al.
# Submitted via: audiograbber 1.83.01
#
DISCID=b30a4f0d
DTITLE=Various Artist - CDX 651
DYEAR=2017
DGENRE=Country
TTITLE0=Chris Stapleton - Broken Halos
TTITLE1=Darius Rucker - For The First Time
TTITLE2=Michael Ray - Get To You
TTITLE3=Brandon Lay - Speakers, Bleachers and Preachers
TTITLE4=Mickey Lamantia - 23 rd Psalm
TTITLE5=James Robert Webb - American Beauty
TTITLE6=Rebel Hearts with Boyz Nite Out - Baby Doll
TTITLE7=Jimmie Earls - Barney and Thelma Lou
TTITLE8=Jessica Lynn - Crazy Idea
TTITLE9=Todd Allen - Grandma's Tractor
TTITLE10=Todd Allen - Grandma's Tractor (Radio Edit)
TTITLE11=Linde LaChance - Where We'd Be
TTITLE12=Jamie Talbert and The Band of Demons - Whiskey Drinkin'
EXTD=
EXTT0=
EXTT1=
EXTT2=
EXTT3=
EXTT4=
EXTT5=
EXTT6=
EXTT7=
EXTT8=
EXTT9=
EXTT10=
EXTT11=
EXTT12=
PLAYORDER=
